<svg width="30" height="24" viewBox="0 0 30 24" fill="none" xmlns="http://www.w3.org/2000/svg">
<path d="M20 0H2C0.895431 0 0 0.895431 0 2C0 3.10457 0.89543 4 2 4H20C21.1046 4 22 3.10457 22 2C22 0.895431 21.1046 0 20 0Z" fill="#39394A"/>
<path d="M24 9.5H2C0.895431 9.5 0 10.3954 0 11.5C0 12.6046 0.89543 13.5 2 13.5H24C25.1046 13.5 26 12.6046 26 11.5C26 10.3954 25.1046 9.5 24 9.5Z" fill="#39394A"/>
<path d="M18 19H2C0.895431 19 0 19.8954 0 21C0 22.1046 0.895431 23 2 23H18C19.1046 23 20 22.1046 20 21C20 19.8954 19.1046 19 18 19Z" fill="#39394A"/>
</svg>
